<?xml version="1.0" standalone="no"?>
<!DOCTYPE svg PUBLIC "-//W3C//DTD SVG 20010904//EN"
 "http://www.w3.org/TR/2001/REC-SVG-20010904/DTD/svg10.dtd">
<svg version="1.0" xmlns="http://www.w3.org/2000/svg"
 width="271.000000pt" height="271.000000pt" viewBox="0 0 271.000000 271.000000"
 preserveAspectRatio="xMidYMid meet">
<metadata>
Created by potrace 1.14, written by Peter Selinger 2001-2017
</metadata>
<g transform="translate(0.000000,271.000000) scale(0.100000,-0.100000)"
fill="#000000" stroke="none">
<path d="M849 2133 c-13 -16 -12 -17 4 -4 9 7 17 15 17 17 0 8 -8 3 -21 -13z"/>
<path d="M1218 2110 c-142 -25 -288 -102 -402 -211 -68 -64 -104 -86 -93 -56
2 6 10 11 16 9 8 -1 9 2 5 10 -4 6 -7 32 -5 56 1 30 -3 50 -15 63 -16 18 -14
21 34 69 28 27 48 50 46 50 -14 0 -118 -100 -162 -154 -77 -96 -78 -97 -72
-248 3 -73 2 -136 -3 -139 -5 -3 -8 -10 -7 -15 1 -5 -9 -12 -22 -16 -16 -4 -8
-6 26 -7 l49 -1 -7 -37 c-3 -21 -6 -46 -6 -55 0 -16 -11 -18 -84 -18 l-83 0
-6 58 c-4 31 -14 78 -23 105 l-16 47 -49 0 c-43 0 -50 -3 -63 -28 -24 -47 -38
-145 -35 -245 3 -67 1 -91 -6 -79 -12 20 -14 211 -3 260 7 32 7 33 -20 30 -37
-4 -54 -57 -55 -171 -1 -62 -4 -81 -10 -65 -5 13 -6 63 -3 111 5 79 4 88 -11
85 -16 -3 -24 -21 -37 -80 -5 -24 -11 -28 -40 -28 -72 0 -72 -61 0 -70 37 -5
38 -7 49 -55 9 -46 12 -50 41 -53 22 -2 34 -9 37 -23 4 -14 14 -19 41 -19 29
0 38 -5 51 -30 14 -27 20 -30 65 -30 l49 0 21 66 c11 36 20 84 20 105 l0 39
84 0 83 0 7 -74 c9 -95 28 -162 76 -256 217 -428 779 -543 1153 -235 148 122
246 304 263 488 l7 77 88 0 89 0 0 -39 c0 -21 9 -69 20 -105 l21 -66 52 0 c49
0 53 2 64 30 10 26 16 30 48 30 28 0 38 5 42 19 3 14 15 21 37 23 29 3 32 7
41 53 11 48 12 50 49 55 71 9 72 70 1 70 -30 0 -33 3 -46 52 -9 35 -20 54 -31
56 -16 3 -17 -5 -12 -85 3 -48 2 -98 -3 -110 -6 -16 -8 1 -9 55 0 42 -6 101
-13 130 -12 48 -15 52 -43 52 -25 0 -29 -3 -23 -17 11 -30 18 -177 11 -226
-12 -76 -21 -54 -18 40 4 93 -10 189 -34 235 -13 25 -20 28 -63 28 l-49 0 -16
-47 c-9 -27 -19 -74 -23 -105 l-6 -58 -87 0 -88 0 -7 57 c-37 294 -265 550
-560 628 -71 19 -250 28 -317 15z m-478 -294 c0 -2 -8 -10 -17 -17 -16 -13
-17 -12 -4 4 13 16 21 21 21 13z m-396 -278 c-18 -86 -18 -282 1 -343 15 -52
14 -70 -4 -38 -33 62 -40 331 -11 411 20 53 27 36 14 -30z m566 38 c0 -7 -9
-77 -20 -156 -11 -79 -20 -149 -20 -156 0 -19 29 -44 51 -44 42 0 55 31 73
171 9 74 20 149 23 167 l5 32 67 0 67 0 -21 -157 c-29 -209 -31 -215 -68 -256
-39 -43 -80 -57 -166 -57 -82 0 -129 22 -154 73 -18 36 -18 41 2 190 12 84 21
165 21 179 0 26 3 27 58 30 66 3 82 0 82 -16z m640 8 c0 -8 -5 -35 -11 -60
l-11 -44 -88 0 c-82 0 -88 -1 -94 -22 -12 -47 -10 -48 74 -48 l80 0 0 -32 c0
-75 -4 -78 -95 -78 l-82 0 -7 -67 c-12 -117 -9 -113 -82 -113 -53 0 -64 3 -64
17 0 16 46 371 56 431 l5 32 159 0 c138 0 160 -2 160 -16z m334 2 c48 -20 79
-69 84 -133 l4 -53 -66 0 c-64 0 -66 1 -66 26 0 46 -17 64 -60 64 -53 0 -68
-25 -82 -138 -13 -107 -7 -122 53 -122 43 0 67 19 76 61 5 28 8 29 64 29 58 0
59 -1 59 -27 0 -39 -38 -100 -83 -137 -37 -30 -43 -31 -132 -31 -79 0 -98 3
-121 21 -57 42 -69 69 -68 153 1 42 7 100 13 128 15 63 69 128 125 154 50 22
152 25 200 5z m496 -18 c31 -87 20 -370 -17 -415 -14 -17 -14 -17 -8 2 28 77
34 292 11 388 -14 61 -6 78 14 25z"/>
<path d="M743 2008 c7 -20 -9 -25 -16 -5 -4 9 -6 9 -6 0 -1 -18 19 -27 32 -14
8 8 7 14 -2 24 -11 10 -13 9 -8 -5z"/>
</g>
</svg>
